<?xml version="1.0" encoding="iso-8859-1"?>
<!-- Generator: Adobe Illustrator 19.0.0, SVG Export Plug-In . SVG Version: 6.00 Build 0)  -->
<svg version="1.1" id="Layer_1" xmlns="http://www.w3.org/2000/svg" xmlns:xlink="http://www.w3.org/1999/xlink" x="0px" y="0px"
	 viewBox="0 0 512.012 512.012" style="enable-background:new 0 0 512.012 512.012;" xml:space="preserve">
<circle style="fill:#FF8C8A;" cx="256.006" cy="256.006" r="256.006"/>
<path style="fill:#FA7876;" d="M511.919,249.042c0.058,2.306,0.092,4.635,0.092,6.964c0,61.174-21.479,117.333-57.277,161.374
	L272.273,240.511c30.887-30.495,62.949-62.384,115.534-115.569L511.919,249.042z M423.802,449.339
	C378.872,488.377,320.2,512,256.006,512c-2.317,0-4.646-0.035-6.952-0.092l-124.838-124.85
	c53.011-52.907,86.919-86.331,116.364-115.327L423.802,449.339z"/>
<path style="fill:#F8F8F8;" d="M304.809,130.683l76.254-8.428c2.387-0.265,4.543,0.484,6.26,2.156
	c1.718,1.683,2.502,3.828,2.283,6.226l-6.894,76.404c-0.277,3.044-2.156,5.499-5.027,6.56s-5.903,0.404-8.094-1.741l-24.119-23.635
	l-51.812,52.861c-5.684,5.799-15.092,5.903-20.891,0.208l0,0c-5.811-5.695-5.903-15.092-0.208-20.902l51.801-52.861l-24.119-23.635
	c-2.179-2.144-2.894-5.165-1.891-8.047C299.344,132.955,301.765,131.018,304.809,130.683z"/>
<g>
	<path style="fill:#D9D9DD;" d="M387.807,124.942c1.384,1.591,1.995,3.539,1.799,5.695l-6.894,76.404
		c-0.277,3.044-2.156,5.499-5.027,6.56c-2.871,1.049-5.903,0.404-8.094-1.741l-24.119-23.635l-51.812,52.861
		c-5.684,5.799-15.092,5.903-20.891,0.208L387.807,124.942z"/>
	<path style="fill:#D9D9DD;" d="M207.214,381.317l-76.254,8.428c-2.387,0.265-4.542-0.473-6.26-2.156
		c-1.718-1.683-2.502-3.828-2.294-6.214l6.906-76.415c0.277-3.044,2.156-5.499,5.027-6.56c2.871-1.049,5.903-0.404,8.094,1.741
		l24.119,23.635l51.812-52.861c5.684-5.799,15.092-5.891,20.891-0.208l0,0c5.811,5.695,5.903,15.092,0.208,20.902l-51.801,52.861
		l24.119,23.635c2.179,2.144,2.894,5.165,1.891,8.047C212.679,379.045,210.258,380.982,207.214,381.317z"/>
</g>
<path style="fill:#F8F8F8;" d="M124.216,387.07c-1.384-1.603-1.995-3.551-1.81-5.707l6.906-76.404
	c0.277-3.044,2.156-5.499,5.027-6.56c2.871-1.049,5.903-0.404,8.094,1.741l24.119,23.635l51.812-52.861
	c5.684-5.799,15.092-5.903,20.891-0.208L124.216,387.07z"/>
<g>
</g>
<g>
</g>
<g>
</g>
<g>
</g>
<g>
</g>
<g>
</g>
<g>
</g>
<g>
</g>
<g>
</g>
<g>
</g>
<g>
</g>
<g>
</g>
<g>
</g>
<g>
</g>
<g>
</g>
</svg>
