<svg xmlns="http://www.w3.org/2000/svg" viewBox="0 0 48 48"><defs><style>.cls-1{fill:none;}.cls-2{fill:#fff;}</style></defs><title>icon</title><g id="Layer_2" data-name="Layer 2"><g id="Layer_1-2" data-name="Layer 1"><path class="cls-1" d="M0,0H48V48H0Z"/><path class="cls-2" d="M32,22a6,6,0,1,0-6-6A6,6,0,0,0,32,22ZM16,22a6,6,0,1,0-6-6A6,6,0,0,0,16,22Zm0,4c-4.67,0-14,2.34-14,7v5H30V33C30,28.34,20.67,26,16,26Zm16,0c-.58,0-1.23,0-1.93.11A8.38,8.38,0,0,1,34,33v5H46V33C46,28.34,36.67,26,32,26Z"/></g></g></svg>