<svg xmlns="http://www.w3.org/2000/svg" viewBox="0 0 48 48"><defs><style>.cls-1{fill:none;}.cls-2{fill:#f7941e;}</style></defs><title>logo</title><g id="Layer_2" data-name="Layer 2"><g id="Layer_1-2" data-name="Layer 1"><path class="cls-1" d="M0,0H48V48H0Z"/><path class="cls-2" d="M24,4A20,20,0,1,0,44,24,20,20,0,0,0,24,4ZM22,39.86A16,16,0,0,1,8,24a15.66,15.66,0,0,1,.42-3.58L18,30v2a4,4,0,0,0,4,4Zm13.79-5.07A4,4,0,0,0,32,32H30V26a2,2,0,0,0-2-2H16V20h4a2,2,0,0,0,2-2V14h4a4,4,0,0,0,4-4V9.17a16,16,0,0,1,5.79,25.62Z"/></g></g></svg>